                <svg xmlns="http://www.w3.org/2000/svg" viewBox="0 0 30 30"  width="30" height="30">
                    <g fill="currentColor">
                      <path d="m26 16.4-9.6 9.8M15 1.6a13.4 13.4 0 1 0 0 26.8 13.4 13.4 0 0 0 0-26.8zm0 4.2a9.2 9.2 0 0 1 9.2 10l-8.4 8.4H15a9.2 9.2 0 0 1-7.4-3.7l2.8-2.8v-3.5l1.4-1.5 3 3 1.7-1.8-4.7-4.7-6 6V15c0-5 4.2-9.2 9.2-9.2Z"/>
                      <path d="M23 12.6 12.7 22m8-9.8-8 8.2 2.2 2.6 8.6-8.6Z"/>
                    </g>
                </svg>
